<svg version="1.1" id="Layer_1" xmlns="http://www.w3.org/2000/svg" xmlns:xlink="http://www.w3.org/1999/xlink" x="0px" y="0px"
	 width="100%" viewBox="0 0 103 105" enable-background="new 0 0 103 105" xml:space="preserve">
<path fill="#020203" opacity="1.000000" stroke="none" 
	d="
M19.000000,1.000000 
	C47.333332,1.000000 75.666664,1.000000 104.000000,1.000000 
	C104.000000,34.666668 104.011452,68.333351 103.957756,101.999931 
	C103.955627,103.333786 103.333328,104.666664 102.527451,105.634964 
	C99.051498,99.132286 96.048096,92.994652 93.099022,86.450363 
	C92.435783,83.319542 91.718216,80.595360 91.042068,77.532944 
	C91.340363,75.448700 91.597244,73.702698 91.919449,71.565582 
	C92.268196,69.133270 92.551620,67.092079 93.116493,64.926247 
	C93.112282,63.549255 93.048912,62.186359 92.492958,61.068424 
	C91.454681,58.980591 90.130341,57.035011 89.245697,54.860657 
	C92.098457,52.088017 89.846382,51.461468 88.037399,50.330627 
	C93.151436,42.284561 93.773499,34.000229 90.798714,25.593647 
	C88.386826,18.777796 83.686844,13.870803 76.119247,12.955503 
	C68.525963,12.037097 63.592197,16.375397 59.754688,22.271778 
	C56.240242,27.671770 55.573101,33.736870 55.526833,39.988876 
	C52.144138,40.133759 49.102074,40.010860 46.166561,40.512043 
	C42.719032,41.100643 39.439362,41.769306 36.585079,38.523514 
	C35.703640,33.194637 35.617767,27.971388 33.925762,23.334173 
	C31.147499,15.719900 25.867144,13.818777 17.998241,16.169247 
	C15.890156,14.896269 13.949867,13.948179 12.055258,12.644373 
	C14.400625,8.525771 16.700314,4.762886 19.000000,1.000000 
z"/>
<path fill="#070506" opacity="1.000000" stroke="none" 
	d="
M12.009579,13.000089 
	C13.949867,13.948179 15.890156,14.896269 17.775593,16.399824 
	C15.732343,19.498911 13.154409,21.775984 11.862068,24.634312 
	C7.325705,34.667591 8.540565,44.471439 14.054810,54.196205 
	C11.963459,58.103592 9.795019,61.574799 7.958579,65.213562 
	C6.430097,68.242134 6.152236,71.238808 10.005058,73.386017 
	C10.506089,76.694916 11.308284,79.314697 15.364030,79.019180 
	C15.887744,79.283890 16.037340,79.551048 15.991747,80.410873 
	C15.863113,81.596992 15.780780,82.273773 15.354277,82.798355 
	C14.373977,83.043495 13.393185,83.294945 13.153914,83.860252 
	C10.041316,91.214226 7.033909,98.612724 4.000001,106.000000 
	C3.004579,106.000000 2.009159,106.000000 1.006869,106.000000 
	C1.000000,75.312439 1.000000,44.624878 1.255440,13.219103 
	C2.673920,8.667260 3.836960,4.833630 5.000000,1.000000 
	C6.714358,1.000000 8.428717,1.000000 10.652474,1.430534 
	C10.699466,6.026841 10.237059,10.192614 9.774651,14.358387 
	C10.104339,14.400996 10.434026,14.443606 10.763713,14.486217 
	C11.179002,13.990841 11.594290,13.495464 12.009579,13.000089 
z"/>
<path fill="#C2C7C7" opacity="1.000000" stroke="none" 
	d="
M78.000000,106.000000 
	C62.312439,106.000000 46.624878,106.000000 30.458767,105.644592 
	C27.289881,101.472816 24.474791,97.734497 22.001905,93.782089 
	C21.424700,92.859543 22.009134,91.210213 22.382195,90.002609 
	C23.310711,90.677200 23.924416,91.235901 24.520317,91.812981 
	C34.677269,101.649117 43.920002,102.061707 53.567078,96.348663 
	C62.403652,91.115593 71.838028,86.891968 81.002907,82.546875 
	C81.370728,84.470467 81.744629,86.070724 82.064026,87.437706 
	C85.526978,85.928200 88.042213,84.831802 91.352814,83.388710 
	C91.181709,86.170631 91.094124,87.594513 90.666977,89.079765 
	C84.035202,93.164474 79.847404,98.726578 78.000000,106.000000 
z"/>
<path fill="#F6F6F7" opacity="1.000000" stroke="none" 
	d="
M22.059097,89.895271 
	C22.009134,91.210213 21.424700,92.859543 22.001905,93.782089 
	C24.474791,97.734497 27.289881,101.472816 29.990108,105.644592 
	C21.645767,106.000000 13.291536,106.000000 4.468654,106.000000 
	C7.033909,98.612724 10.041316,91.214226 13.153914,83.860252 
	C13.393185,83.294945 14.373977,83.043495 15.484005,83.068863 
	C17.991636,85.626129 20.025368,87.760696 22.059097,89.895271 
z"/>
<path fill="#F9FAFA" opacity="1.000000" stroke="none" 
	d="
M78.468636,106.000000 
	C79.847404,98.726578 84.035202,93.164474 90.951057,88.958916 
	C92.064705,88.136803 92.554695,87.496902 93.044693,86.857010 
	C96.048096,92.994652 99.051498,99.132286 102.027451,105.634964 
	C94.312424,106.000000 86.624847,106.000000 78.468636,106.000000 
z"/>
<path fill="#4B505A" opacity="1.000000" stroke="none" 
	d="
M12.055258,12.644373 
	C11.594290,13.495464 11.179002,13.990841 10.763713,14.486217 
	C10.434026,14.443606 10.104339,14.400996 9.774651,14.358387 
	C10.237059,10.192614 10.699466,6.026841 11.080936,1.430534 
	C13.370557,1.000000 15.741115,1.000000 18.555836,1.000000 
	C16.700314,4.762886 14.400625,8.525771 12.055258,12.644373 
z"/>
<path fill="#57443A" opacity="1.000000" stroke="none" 
	d="
M4.500000,1.000000 
	C3.836960,4.833630 2.673920,8.667260 1.255440,12.750444 
	C1.000000,9.833333 1.351247,6.615837 0.902389,3.514126 
	C0.442571,0.336683 2.345620,1.048077 4.500000,1.000000 
z"/>
<path fill="#F6F6F6" opacity="1.000000" stroke="none" 
	d="
M55.914608,39.997204 
	C55.573101,33.736870 56.240242,27.671770 59.754688,22.271778 
	C63.592197,16.375397 68.525963,12.037097 76.119247,12.955503 
	C83.686844,13.870803 88.386826,18.777796 90.798714,25.593647 
	C93.773499,34.000229 93.151436,42.284561 87.782959,50.432869 
	C86.585281,51.895287 85.761414,52.884903 84.527138,53.938560 
	C82.732346,53.986176 81.347954,53.969742 79.781693,53.622387 
	C79.257576,52.028732 78.556145,50.741692 78.639664,49.507786 
	C78.902382,45.626556 79.912376,41.750153 79.783577,37.900303 
	C79.638138,33.553436 75.554497,29.560921 71.931038,29.494078 
	C66.886101,29.401011 65.036697,33.002441 64.140739,37.067860 
	C63.513039,39.916046 63.628834,42.928085 63.376530,46.356899 
	C61.307220,45.480320 59.378551,44.663315 57.349339,43.576195 
	C56.943279,42.829456 56.637764,42.352837 56.344948,41.548843 
	C56.209969,40.813385 56.062290,40.405296 55.914608,39.997204 
z"/>
<path fill="#F1F2F2" opacity="1.000000" stroke="none" 
	d="
M14.121469,53.832573 
	C8.540565,44.471439 7.325705,34.667591 11.862068,24.634312 
	C13.154409,21.775984 15.732343,19.498911 17.943390,16.724712 
	C25.867144,13.818777 31.147499,15.719900 33.925762,23.334173 
	C35.617767,27.971388 35.703640,33.194637 36.385521,38.791012 
	C35.380737,40.893833 34.501389,42.360298 33.287338,43.827213 
	C32.294018,43.941910 31.635401,44.056152 30.610611,43.959763 
	C29.815914,40.841297 30.071140,37.560936 28.751390,35.138687 
	C27.611519,33.046585 24.586857,30.609470 22.568260,30.753160 
	C20.541624,30.897427 17.907816,33.705456 16.987234,35.941795 
	C14.851488,41.130100 15.606153,46.377609 19.023001,51.332939 
	C18.576317,52.357899 18.181896,53.073032 17.421898,53.842117 
	C16.078037,53.874905 15.099753,53.853741 14.121469,53.832573 
z"/>
<path fill="#200E06" opacity="1.000000" stroke="none" 
	d="
M22.382195,90.002609 
	C20.025368,87.760696 17.991636,85.626129 15.828175,83.221054 
	C15.780780,82.273773 15.863113,81.596992 16.219202,80.452217 
	C16.492958,79.984215 16.951431,80.045830 17.084877,80.352364 
	C19.754568,83.157883 22.290813,85.656860 24.927485,88.388351 
	C25.317341,88.782051 25.606770,88.943245 26.017147,89.357330 
	C26.574524,89.960648 27.010950,90.311073 27.554478,90.790100 
	C27.661579,90.918709 27.985031,91.009407 28.169075,91.294174 
	C32.975830,93.455399 37.689247,97.023720 42.198395,96.781960 
	C47.890713,96.476776 53.416462,93.064827 59.374664,90.956230 
	C65.176064,87.635895 70.616875,84.352409 76.439499,81.022842 
	C81.159233,78.648155 85.497154,76.319550 89.951401,73.718842 
	C90.663193,72.950058 91.258652,72.453377 91.854111,71.956696 
	C91.597244,73.702698 91.340363,75.448700 90.661972,77.609222 
	C87.163292,79.423668 84.086143,80.823608 81.008987,82.223541 
	C71.838028,86.891968 62.403652,91.115593 53.567078,96.348663 
	C43.920002,102.061707 34.677269,101.649117 24.520317,91.812981 
	C23.924416,91.235901 23.310711,90.677200 22.382195,90.002609 
z"/>
<path fill="#F4AA11" opacity="1.000000" stroke="none" 
	d="
M91.919441,71.565582 
	C91.258652,72.453377 90.663193,72.950058 89.481613,73.713707 
	C87.679604,73.740158 86.463722,73.499649 85.446945,72.938904 
	C85.180939,70.900787 85.222359,68.367516 84.116745,67.680695 
	C82.861633,66.901009 80.562256,67.667412 78.752441,67.972656 
	C77.850365,68.124794 77.027679,68.747627 76.252655,68.803398 
	C77.340652,63.922405 80.036629,62.024261 85.119156,63.834888 
	C85.158638,63.404301 85.198128,62.973709 85.237610,62.543118 
	C83.493362,60.701107 81.749123,58.859093 80.312531,57.143497 
	C81.456245,57.500011 82.292313,57.730106 83.481384,57.982162 
	C86.834610,60.353050 89.834824,62.701969 92.835045,65.050888 
	C92.551620,67.092079 92.268196,69.133270 91.919441,71.565582 
z"/>
<path fill="#100C09" opacity="1.000000" stroke="none" 
	d="
M33.622044,43.826759 
	C34.501389,42.360298 35.380737,40.893833 36.459641,39.159874 
	C39.439362,41.769306 42.719032,41.100643 46.166561,40.512043 
	C49.102074,40.010860 52.144138,40.133759 55.526833,39.988876 
	C56.062290,40.405296 56.209969,40.813385 55.989960,41.616058 
	C55.085121,42.942745 54.547970,43.874855 53.596146,44.814552 
	C48.756638,44.855122 44.331806,44.888107 39.589203,44.957169 
	C38.845848,44.980103 38.420265,44.966957 37.725288,44.677956 
	C36.177948,44.210316 34.899994,44.018539 33.622044,43.826759 
z"/>
<path fill="#CCCECF" opacity="1.000000" stroke="none" 
	d="
M81.002907,82.546875 
	C84.086143,80.823608 87.163292,79.423668 90.620544,77.947464 
	C91.718216,80.595360 92.435783,83.319542 93.099022,86.450363 
	C92.554695,87.496902 92.064705,88.136803 91.290634,88.897545 
	C91.094124,87.594513 91.181709,86.170631 91.352814,83.388710 
	C88.042213,84.831802 85.526978,85.928200 82.064026,87.437706 
	C81.744629,86.070724 81.370728,84.470467 81.002907,82.546875 
z"/>
<path fill="#200C05" opacity="1.000000" stroke="none" 
	d="
M93.116493,64.926247 
	C89.834824,62.701969 86.834610,60.353050 83.389877,57.643925 
	C81.510826,56.248466 80.076279,55.213215 78.970558,54.112152 
	C79.520782,54.015335 79.742180,53.984322 79.963570,53.953312 
	C81.347954,53.969742 82.732346,53.986176 84.753983,54.221592 
	C86.569160,54.637131 87.747093,54.833687 88.925026,55.030243 
	C90.130341,57.035011 91.454681,58.980591 92.492958,61.068424 
	C93.048912,62.186359 93.112282,63.549255 93.116493,64.926247 
z"/>
<path fill="#0D0D11" opacity="1.000000" stroke="none" 
	d="
M89.245697,54.860657 
	C87.747093,54.833687 86.569160,54.637131 85.164383,54.157547 
	C85.761414,52.884903 86.585281,51.895287 87.663582,50.803429 
	C89.846382,51.461468 92.098457,52.088017 89.245697,54.860657 
z"/>
<path fill="#200E06" opacity="1.000000" stroke="none" 
	d="
M14.054810,54.196205 
	C15.099753,53.853741 16.078037,53.874905 17.653519,54.072952 
	C18.405092,54.403763 18.559465,54.557693 18.471968,54.949203 
	C15.999843,57.784420 13.825945,60.433357 11.522264,62.964157 
	C9.526188,65.157028 8.040112,67.364044 9.894230,70.685287 
	C9.970965,71.648659 10.028766,72.290764 10.062640,72.951691 
	C10.038714,72.970497 9.991215,73.008560 9.991215,73.008560 
	C6.152236,71.238808 6.430097,68.242134 7.958579,65.213562 
	C9.795019,61.574799 11.963459,58.103592 14.054810,54.196205 
z"/>
<path fill="#CC9F57" opacity="1.000000" stroke="none" 
	d="
M16.951431,80.045830 
	C16.951431,80.045830 16.492958,79.984215 16.265503,79.942871 
	C16.037340,79.551048 15.887744,79.283890 15.255445,78.710617 
	C14.221209,77.233032 13.520783,76.144897 13.091864,74.952904 
	C13.875162,74.576645 14.386956,74.304237 15.201700,74.100357 
	C16.025036,74.502785 16.545422,74.836678 17.275120,75.403259 
	C18.677025,76.403053 19.869617,77.170158 20.868744,78.176872 
	C19.433998,78.959595 18.192715,79.502716 16.951431,80.045830 
z"/>
<path fill="#200E06" opacity="1.000000" stroke="none" 
	d="
M12.820358,75.056755 
	C13.520783,76.144897 14.221209,77.233032 15.030216,78.629730 
	C11.308284,79.314697 10.506089,76.694916 10.005058,73.386017 
	C9.991215,73.008560 10.038714,72.970497 10.283348,73.072983 
	C10.946134,73.458511 11.364286,73.741539 11.929853,74.226608 
	C12.227628,74.753197 12.475325,74.962570 12.820358,75.056755 
z"/>
<path fill="#100C09" opacity="1.000000" stroke="none" 
	d="
M79.781693,53.622387 
	C79.742180,53.984322 79.520782,54.015335 78.613525,54.084633 
	C70.587669,51.194130 63.247677,48.265339 56.086349,45.014725 
	C56.659969,44.410706 57.054928,44.128510 57.449883,43.846313 
	C59.378551,44.663315 61.307220,45.480320 63.376530,46.356899 
	C63.628834,42.928085 63.513039,39.916046 64.140739,37.067860 
	C65.036697,33.002441 66.886101,29.401011 71.931038,29.494078 
	C75.554497,29.560921 79.638138,33.553436 79.783577,37.900303 
	C79.912376,41.750153 78.902382,45.626556 78.639664,49.507786 
	C78.556145,50.741692 79.257576,52.028732 79.781693,53.622387 
z"/>
<path fill="#020203" opacity="1.000000" stroke="none" 
	d="
M57.349339,43.576195 
	C57.054928,44.128510 56.659969,44.410706 55.756535,44.983810 
	C54.835644,45.118805 54.423229,44.962887 54.010818,44.806969 
	C54.547970,43.874855 55.085121,42.942745 55.977261,41.943424 
	C56.637764,42.352837 56.943279,42.829456 57.349339,43.576195 
z"/>
<path fill="#0F0C0B" opacity="1.000000" stroke="none" 
	d="
M19.075264,51.023117 
	C15.606153,46.377609 14.851488,41.130100 16.987234,35.941795 
	C17.907816,33.705456 20.541624,30.897427 22.568260,30.753160 
	C24.586857,30.609470 27.611519,33.046585 28.751390,35.138687 
	C30.071140,37.560936 29.815914,40.841297 30.442541,44.244171 
	C26.785519,46.833851 22.930391,48.928482 19.075264,51.023117 
z"/>
<path fill="#200E06" opacity="1.000000" stroke="none" 
	d="
M19.023001,51.332939 
	C22.930391,48.928482 26.785519,46.833851 30.808716,44.454807 
	C31.635401,44.056152 32.294018,43.941910 33.287338,43.827217 
	C34.899994,44.018539 36.177948,44.210316 37.532135,45.008446 
	C34.816143,46.736477 31.946600,47.700089 29.250748,49.018776 
	C25.667574,50.771503 22.219791,52.801022 18.713840,54.711620 
	C18.559465,54.557693 18.405092,54.403763 18.019096,54.018997 
	C18.181896,53.073032 18.576317,52.357899 19.023001,51.332939 
z"/>
<path fill="#D59C3F" opacity="1.000000" stroke="none" 
	d="
M59.014065,90.993073 
	C53.416462,93.064827 47.890713,96.476776 42.198395,96.781960 
	C37.689247,97.023720 32.975830,93.455399 28.428694,91.285164 
	C28.677492,90.988251 28.850714,90.985107 29.352543,90.988503 
	C30.119900,90.994247 30.558655,90.993439 31.292538,91.143044 
	C33.056854,92.198601 34.526035,93.103752 36.392754,94.073692 
	C43.171478,96.125900 48.980125,93.622093 55.187286,91.749115 
	C56.295715,91.396332 57.096668,91.126877 58.176208,90.895653 
	C58.641216,90.953606 58.827641,90.973335 59.014065,90.993073 
z"/>
<path fill="#D8A645" opacity="1.000000" stroke="none" 
	d="
M17.084877,80.352364 
	C18.192715,79.502716 19.433998,78.959595 21.184072,78.327080 
	C23.439226,78.831802 25.185591,79.425926 26.942152,80.316635 
	C26.953539,81.008896 26.954731,81.404564 26.628250,81.769211 
	C25.360100,81.509621 24.419621,81.281059 22.323162,80.771553 
	C25.218992,83.414787 27.147190,85.174797 28.711496,86.948959 
	C27.266781,87.295929 26.185955,87.628761 25.031624,88.004440 
	C24.958118,88.047302 24.827057,88.155846 24.827057,88.155846 
	C22.290813,85.656860 19.754568,83.157883 17.084877,80.352364 
M24.582306,85.514008 
	C24.582306,85.514008 24.481443,85.571609 24.582306,85.514008 
z"/>
<path fill="#D9A420" opacity="1.000000" stroke="none" 
	d="
M59.374664,90.956230 
	C58.827641,90.973335 58.641216,90.953606 58.211098,90.593384 
	C57.984371,89.844704 58.001339,89.436508 58.009499,89.014435 
	C58.000683,89.000557 58.028622,89.018188 58.271843,89.020317 
	C58.515064,89.022446 59.001095,89.002060 59.219124,88.894547 
	C59.708984,88.590599 59.900368,88.334129 60.009804,88.010010 
	C60.008301,88.002396 60.023506,88.018501 60.316467,87.991829 
	C61.074127,87.648170 61.538822,87.331177 62.365402,86.969398 
	C67.757385,86.206741 70.266388,80.042160 76.008499,80.857849 
	C76.041054,80.923424 76.057678,81.068916 76.057678,81.068916 
	C70.616875,84.352409 65.176064,87.635895 59.374664,90.956230 
z"/>
<path fill="#E7AD36" opacity="1.000000" stroke="none" 
	d="
M85.247833,73.259132 
	C86.463722,73.499649 87.679604,73.740158 89.365280,73.985809 
	C85.497154,76.319550 81.159233,78.648155 76.439499,81.022842 
	C76.057678,81.068916 76.041054,80.923424 76.194641,80.585068 
	C79.470123,78.774506 81.457466,76.413017 82.339928,73.001373 
	C83.114845,73.246727 83.606712,73.454323 83.996918,73.966393 
	C84.190872,74.780067 84.486481,75.289276 84.782089,75.798485 
	C84.943176,75.011063 85.104271,74.223648 85.257553,73.392288 
	C85.249741,73.348358 85.247833,73.259132 85.247833,73.259132 
z"/>
<path fill="#D8A645" opacity="1.000000" stroke="none" 
	d="
M27.447378,90.661499 
	C27.010950,90.311073 26.574524,89.960648 26.058115,89.314133 
	C25.978134,89.018051 26.054634,88.926826 26.344767,88.969818 
	C27.094372,89.337067 27.553846,89.661316 27.862989,90.147141 
	C27.712658,90.308723 27.447378,90.661499 27.447378,90.661499 
z"/>
<path fill="#D8A645" opacity="1.000000" stroke="none" 
	d="
M25.937166,89.061241 
	C25.606770,88.943245 25.317341,88.782051 24.927485,88.388351 
	C24.827057,88.155846 24.958118,88.047302 25.227612,88.123978 
	C25.743681,88.396072 25.929523,88.638130 26.054634,88.926826 
	C26.054634,88.926826 25.978134,89.018051 25.937166,89.061241 
z"/>
<path fill="#D8A645" opacity="1.000000" stroke="none" 
	d="
M29.023937,90.981956 
	C28.850714,90.985107 28.677492,90.988251 28.244650,91.000397 
	C27.985031,91.009407 27.661579,90.918709 27.554478,90.790100 
	C27.447378,90.661499 27.712658,90.308723 28.077591,90.261482 
	C28.708408,90.415550 28.902214,90.671455 29.023937,90.981956 
z"/>
<path fill="#FCB204" opacity="1.000000" stroke="none" 
	d="
M26.955921,81.800232 
	C26.954731,81.404564 26.953539,81.008896 27.264946,80.177162 
	C28.600677,79.179108 29.623814,78.617119 31.345531,77.671402 
	C25.827248,77.180809 26.111935,76.893776 22.126589,72.941017 
	C19.603909,70.438965 16.078432,68.947968 13.001354,67.001755 
	C12.999997,67.000000 12.996358,66.997208 13.034899,66.639778 
	C14.722501,64.561325 16.236895,62.677559 18.061062,61.168156 
	C19.668221,59.838314 22.255560,59.345181 23.305658,57.753807 
	C26.753838,52.528255 31.003725,49.164158 37.498516,48.786194 
	C38.717278,48.715263 39.837971,46.959064 41.379448,45.849449 
	C44.333054,45.709713 47.143097,45.021843 49.449253,45.809429 
	C59.713215,49.314713 69.832985,53.242203 80.004875,57.017078 
	C81.749123,58.859093 83.493362,60.701107 85.237610,62.543118 
	C85.198128,62.973709 85.158638,63.404301 85.119156,63.834888 
	C80.036629,62.024261 77.340652,63.922405 76.244827,68.791481 
	C76.153450,69.133713 76.149750,69.128090 75.791527,69.091583 
	C74.614868,69.675850 73.796432,70.296623 72.659744,70.993843 
	C71.897469,71.731171 71.453453,72.392044 71.006531,73.024429 
	C71.003639,72.995956 71.056908,73.016914 70.744308,73.010620 
	C69.948410,73.344749 69.465103,73.685181 68.986832,74.004639 
	C68.991867,73.983673 69.033531,73.994850 68.731155,73.998779 
	C67.914642,74.286163 67.400490,74.569603 66.722809,74.904297 
	C66.559280,74.955551 66.218071,74.988052 65.937004,75.063530 
	C65.422173,75.436584 65.188408,75.734161 64.797318,76.258278 
	C64.113487,76.626411 63.586987,76.768013 62.860306,76.694901 
	C61.775124,77.008247 60.890114,77.536301 60.003445,78.033371 
	C60.001785,78.002380 60.059288,78.025719 59.681580,78.002625 
	C57.541740,79.005402 55.779617,80.031265 54.009777,81.028770 
	C54.002060,81.000404 54.045712,81.039803 53.643791,80.994339 
	C52.166824,81.008469 51.091778,81.068054 49.694351,81.264862 
	C44.984795,82.593437 40.636917,83.980400 36.189884,84.873810 
	C34.555199,85.202209 32.686138,84.363991 30.618114,83.936874 
	C29.193470,83.143974 28.074696,82.472099 26.955921,81.800232 
z"/>
<path fill="#D7AA47" opacity="1.000000" stroke="none" 
	d="
M80.312531,57.143497 
	C69.832985,53.242203 59.713215,49.314713 49.449253,45.809429 
	C47.143097,45.021843 44.333054,45.709713 41.253761,45.620365 
	C40.470692,45.321957 40.188831,45.121521 39.906975,44.921089 
	C44.331806,44.888107 48.756638,44.855122 53.596146,44.814552 
	C54.423229,44.962887 54.835644,45.118805 55.577869,45.305634 
	C63.247677,48.265339 70.587669,51.194130 78.284698,54.150436 
	C80.076279,55.213215 81.510826,56.248466 83.036865,57.621956 
	C82.292313,57.730106 81.456245,57.500011 80.312531,57.143497 
z"/>
<path fill="#461A01" opacity="1.000000" stroke="none" 
	d="
M84.098579,73.661919 
	C83.606712,73.454323 83.114845,73.246727 82.145981,72.685341 
	C79.092064,73.153229 76.515137,73.974899 73.614677,74.817184 
	C72.859764,74.815201 72.428383,74.792618 71.829102,74.573204 
	C71.360077,74.212173 71.058945,74.047958 70.849815,73.672981 
	C70.941811,73.462219 71.056908,73.016914 71.056908,73.016914 
	C71.056908,73.016914 71.003639,72.995956 71.330765,72.994522 
	C72.453102,72.336723 73.248329,71.680359 74.308990,70.904465 
	C75.099525,70.232643 75.624634,69.680367 76.149750,69.128082 
	C76.149750,69.128090 76.153450,69.133713 76.161270,69.145630 
	C77.027679,68.747627 77.850365,68.124794 78.752441,67.972656 
	C80.562256,67.667412 82.861633,66.901009 84.116745,67.680695 
	C85.222359,68.367516 85.180939,70.900787 85.446945,72.938904 
	C85.247833,73.259132 85.249741,73.348358 85.063187,73.427338 
	C84.647865,73.708969 84.388519,73.760834 84.098579,73.661919 
z"/>
<path fill="#F3AF14" opacity="1.000000" stroke="none" 
	d="
M39.589203,44.957169 
	C40.188831,45.121521 40.470692,45.321957 40.878235,45.751472 
	C39.837971,46.959064 38.717278,48.715263 37.498516,48.786194 
	C31.003725,49.164158 26.753838,52.528255 23.305658,57.753807 
	C22.255560,59.345181 19.668221,59.838314 18.061062,61.168156 
	C16.236895,62.677559 14.722501,64.561325 12.905315,66.692383 
	C12.825699,67.069443 12.914205,67.036476 13.002712,67.003510 
	C16.078432,68.947968 19.603909,70.438965 22.126589,72.941017 
	C26.111935,76.893776 25.827248,77.180809 31.345531,77.671402 
	C29.623814,78.617119 28.600677,79.179108 27.254749,79.880569 
	C25.185591,79.425926 23.439226,78.831802 21.377537,78.087471 
	C19.869617,77.170158 18.677025,76.403053 17.576103,75.241104 
	C17.375353,69.344772 12.746042,71.383057 9.875295,70.364037 
	C8.040112,67.364044 9.526188,65.157028 11.522264,62.964157 
	C13.825945,60.433357 15.999843,57.784420 18.471968,54.949203 
	C22.219791,52.801022 25.667574,50.771503 29.250748,49.018776 
	C31.946600,47.700089 34.816143,46.736477 37.801521,45.284306 
	C38.420265,44.966957 38.845848,44.980103 39.589203,44.957169 
z"/>
<path fill="#471D02" opacity="1.000000" stroke="none" 
	d="
M9.894230,70.685287 
	C12.746042,71.383057 17.375353,69.344772 17.366791,75.008423 
	C16.545422,74.836678 16.025036,74.502785 15.040245,73.809143 
	C13.522299,73.046631 11.973220,70.237221 11.782438,74.024574 
	C11.364286,73.741539 10.946134,73.458511 10.307274,73.054176 
	C10.028766,72.290764 9.970965,71.648659 9.894230,70.685287 
z"/>
<path fill="#C19B63" opacity="1.000000" stroke="none" 
	d="
M11.929853,74.226608 
	C11.973220,70.237221 13.522299,73.046631 14.737295,73.740616 
	C14.386956,74.304237 13.875162,74.576645 13.091864,74.952904 
	C12.475325,74.962570 12.227628,74.753197 11.929853,74.226608 
z"/>
<path fill="#F9A80E" opacity="1.000000" stroke="none" 
	d="
M73.938210,74.796570 
	C76.515137,73.974899 79.092064,73.153229 81.862930,72.647598 
	C81.457466,76.413017 79.470123,78.774506 76.162094,80.519493 
	C70.266388,80.042160 67.757385,86.206741 62.190536,86.746887 
	C61.110363,87.052284 60.566936,87.535393 60.023506,88.018509 
	C60.023506,88.018501 60.008301,88.002396 59.791321,88.116745 
	C59.303055,88.428444 59.111973,88.685425 59.001095,89.002060 
	C59.001095,89.002060 58.515064,89.022446 58.213207,88.889244 
	C57.830421,88.707657 57.749496,88.659264 57.668568,88.610878 
	C57.785149,88.750031 57.901730,88.889175 58.018311,89.028320 
	C58.001339,89.436508 57.984371,89.844704 57.932510,90.555161 
	C57.096668,91.126877 56.295715,91.396332 54.977551,91.524368 
	C53.638275,91.253754 52.816216,91.124557 51.943626,90.668716 
	C50.931946,89.290337 49.970791,88.238609 49.351807,87.122787 
	C50.845829,86.387100 51.997684,85.715492 53.494095,85.037712 
	C56.453766,85.283035 59.121578,85.648331 60.250557,82.098053 
	C60.654541,81.990013 60.818764,81.957054 61.185719,82.181564 
	C65.308441,81.368416 70.073891,81.541809 70.946793,75.960358 
	C70.967621,75.963631 70.961250,75.921944 71.310776,75.942520 
	C72.419601,75.574249 73.178902,75.185410 73.938210,74.796570 
z"/>
<path fill="#F4A106" opacity="1.000000" stroke="none" 
	d="
M51.994152,90.995354 
	C52.816216,91.124557 53.638275,91.253754 54.670074,91.607697 
	C48.980125,93.622093 43.171478,96.125900 36.404648,93.711914 
	C36.865276,92.634888 37.674568,91.926949 38.569019,91.351341 
	C39.344589,90.852226 40.216660,90.503075 41.410046,90.066040 
	C43.172817,89.684937 44.571621,89.325432 46.167900,89.209610 
	C48.241631,89.967323 50.117893,90.481339 51.994152,90.995354 
z"/>
<path fill="#DBA929" opacity="1.000000" stroke="none" 
	d="
M45.970425,88.965919 
	C44.571621,89.325432 43.172817,89.684937 40.959309,90.039825 
	C37.095539,90.354355 34.046474,90.673500 30.997408,90.992645 
	C30.558655,90.993439 30.119900,90.994247 29.352543,90.988503 
	C28.902214,90.671455 28.708408,90.415550 28.227921,90.099899 
	C27.553846,89.661316 27.094372,89.337067 26.344767,88.969818 
	C25.929523,88.638130 25.743681,88.396072 25.301117,88.081123 
	C26.185955,87.628761 27.266781,87.295929 29.068617,87.088463 
	C35.013893,90.641823 40.589222,88.150024 46.003643,88.373497 
	C45.992050,88.570938 45.970425,88.965919 45.970425,88.965919 
z"/>
<path fill="#E8A417" opacity="1.000000" stroke="none" 
	d="
M31.292538,91.143051 
	C34.046474,90.673500 37.095539,90.354355 40.595341,90.061424 
	C40.216660,90.503075 39.344589,90.852226 38.569019,91.351341 
	C37.674568,91.926949 36.865276,92.634888 36.007111,93.647125 
	C34.526035,93.103752 33.056854,92.198601 31.292538,91.143051 
z"/>
<path fill="#431302" opacity="1.000000" stroke="none" 
	d="
M46.015236,88.176056 
	C40.589222,88.150024 35.013893,90.641823 29.432508,87.074310 
	C27.147190,85.174797 25.218992,83.414787 22.323162,80.771553 
	C24.419621,81.281059 25.360100,81.509621 26.628250,81.769211 
	C28.074696,82.472099 29.193470,83.143974 30.735889,84.295029 
	C32.767532,85.467392 34.535378,86.981247 35.954502,86.704819 
	C40.837593,85.753654 45.598755,84.176529 50.766220,82.860672 
	C52.099281,82.268890 53.072495,81.654343 54.045712,81.039803 
	C54.045712,81.039803 54.002060,81.000404 54.368813,81.008316 
	C56.510136,80.019394 58.284710,79.022552 60.059288,78.025711 
	C60.059288,78.025719 60.001785,78.002380 60.346004,78.015152 
	C61.480309,77.655151 62.270393,77.282379 63.060482,76.909607 
	C63.586987,76.768013 64.113487,76.626411 65.082008,76.196671 
	C65.755379,75.601700 65.986725,75.294876 66.218071,74.988052 
	C66.218071,74.988052 66.559280,74.955551 67.037552,74.961708 
	C68.021721,74.643524 68.527626,74.319191 69.033531,73.994850 
	C69.033531,73.994850 68.991867,73.983673 69.283539,73.983688 
	C69.969406,73.950394 70.363617,73.917068 70.757820,73.883743 
	C71.058945,74.047958 71.360077,74.212173 71.587135,74.700226 
	C71.329124,75.323357 71.145187,75.622650 70.961250,75.921944 
	C70.961250,75.921944 70.967621,75.963631 70.632942,75.992569 
	C67.193169,77.989037 64.088074,79.956566 60.982979,81.924095 
	C60.818764,81.957054 60.654541,81.990013 59.883820,82.045990 
	C57.234726,83.060631 55.192131,84.052254 53.149536,85.043884 
	C51.997684,85.715492 50.845829,86.387100 49.028721,87.129456 
	C47.580723,87.525490 46.797977,87.850777 46.015236,88.176056 
z"/>
<path fill="#DBA929" opacity="1.000000" stroke="none" 
	d="
M24.531876,85.542809 
	C24.481443,85.571609 24.582306,85.514008 24.531876,85.542809 
z"/>
<path fill="#F1A716" opacity="1.000000" stroke="none" 
	d="
M60.316467,87.991837 
	C60.566936,87.535393 61.110363,87.052284 61.828655,86.791687 
	C61.538822,87.331177 61.074127,87.648170 60.316467,87.991837 
z"/>
<path fill="#F1A716" opacity="1.000000" stroke="none" 
	d="
M59.219124,88.894547 
	C59.111973,88.685425 59.303055,88.428444 59.792824,88.124359 
	C59.900368,88.334129 59.708984,88.590599 59.219124,88.894547 
z"/>
<path fill="#F4AA11" opacity="1.000000" stroke="none" 
	d="
M83.996918,73.966393 
	C84.388519,73.760834 84.647865,73.708969 85.070992,73.471268 
	C85.104271,74.223648 84.943176,75.011063 84.782089,75.798485 
	C84.486481,75.289276 84.190872,74.780067 83.996918,73.966393 
z"/>
<path fill="#E2A736" opacity="1.000000" stroke="none" 
	d="
M50.406376,82.837914 
	C45.598755,84.176529 40.837593,85.753654 35.954502,86.704819 
	C34.535378,86.981247 32.767532,85.467392 31.041763,84.416054 
	C32.686138,84.363991 34.555199,85.202209 36.189884,84.873810 
	C40.636917,83.980400 44.984795,82.593437 49.772705,81.695999 
	C50.251087,82.272598 50.328732,82.555260 50.406376,82.837914 
z"/>
<path fill="#E0A938" opacity="1.000000" stroke="none" 
	d="
M59.681576,78.002625 
	C58.284710,79.022552 56.510136,80.019394 54.376526,81.036682 
	C55.779617,80.031265 57.541740,79.005402 59.681576,78.002625 
z"/>
<path fill="#F4AA11" opacity="1.000000" stroke="none" 
	d="
M75.791519,69.091583 
	C75.624634,69.680367 75.099525,70.232643 74.042191,70.882111 
	C73.332634,70.958656 73.155312,70.938026 72.977997,70.917389 
	C73.796432,70.296623 74.614868,69.675850 75.791519,69.091583 
z"/>
<path fill="#E0A938" opacity="1.000000" stroke="none" 
	d="
M72.659744,70.993851 
	C73.155312,70.938026 73.332634,70.958656 73.776756,71.001648 
	C73.248329,71.680359 72.453102,72.336723 71.333656,73.022995 
	C71.453453,72.392044 71.897469,71.731171 72.659744,70.993851 
z"/>
<path fill="#E0A938" opacity="1.000000" stroke="none" 
	d="
M62.860306,76.694901 
	C62.270393,77.282379 61.480309,77.655151 60.347664,78.046143 
	C60.890114,77.536301 61.775124,77.008247 62.860306,76.694901 
z"/>
<path fill="#E0A938" opacity="1.000000" stroke="none" 
	d="
M50.766220,82.860672 
	C50.328732,82.555260 50.251087,82.272598 50.095085,81.558784 
	C51.091778,81.068054 52.166824,81.008469 53.643791,80.994339 
	C53.072495,81.654343 52.099281,82.268890 50.766220,82.860672 
z"/>
<path fill="#E0A938" opacity="1.000000" stroke="none" 
	d="
M70.849815,73.672981 
	C70.363617,73.917068 69.969406,73.950394 69.278503,74.004654 
	C69.465103,73.685181 69.948410,73.344749 70.744308,73.010620 
	C71.056908,73.016914 70.941811,73.462219 70.849815,73.672981 
z"/>
<path fill="#E0A938" opacity="1.000000" stroke="none" 
	d="
M68.731155,73.998779 
	C68.527626,74.319191 68.021721,74.643524 67.201080,74.910461 
	C67.400490,74.569603 67.914642,74.286163 68.731155,73.998779 
z"/>
<path fill="#E0A938" opacity="1.000000" stroke="none" 
	d="
M65.937004,75.063530 
	C65.986725,75.294876 65.755379,75.601700 65.239334,75.970131 
	C65.188408,75.734161 65.422173,75.436584 65.937004,75.063530 
z"/>
<path fill="#E3A219" opacity="1.000000" stroke="none" 
	d="
M71.310776,75.942520 
	C71.145187,75.622650 71.329124,75.323357 71.755035,74.897049 
	C72.428383,74.792618 72.859764,74.815201 73.614677,74.817184 
	C73.178902,75.185410 72.419601,75.574249 71.310776,75.942520 
z"/>
<path fill="#FCB204" opacity="1.000000" stroke="none" 
	d="
M13.001354,67.001755 
	C12.914205,67.036476 12.825699,67.069443 12.866776,67.049805 
	C12.996358,66.997208 12.999997,67.000000 13.001354,67.001755 
z"/>
<path fill="#E3A219" opacity="1.000000" stroke="none" 
	d="
M61.185715,82.181564 
	C64.088074,79.956566 67.193169,77.989037 70.612106,75.989288 
	C70.073891,81.541809 65.308441,81.368416 61.185715,82.181564 
z"/>
<path fill="#F1A716" opacity="1.000000" stroke="none" 
	d="
M46.003643,88.373497 
	C46.797977,87.850777 47.580723,87.525490 48.686550,87.193542 
	C49.970791,88.238609 50.931946,89.290337 51.943626,90.668716 
	C50.117893,90.481339 48.241631,89.967323 46.167900,89.209610 
	C45.970425,88.965919 45.992050,88.570938 46.003643,88.373497 
z"/>
<path fill="#E3A219" opacity="1.000000" stroke="none" 
	d="
M53.494095,85.037712 
	C55.192131,84.052254 57.234726,83.060631 59.644054,82.121063 
	C59.121578,85.648331 56.453766,85.283035 53.494095,85.037712 
z"/>
<path fill="#F1A716" opacity="1.000000" stroke="none" 
	d="
M58.009499,89.014435 
	C57.901730,88.889175 57.785149,88.750031 57.668568,88.610878 
	C57.749496,88.659264 57.830421,88.707657 57.969986,88.887115 
	C58.028622,89.018188 58.000683,89.000557 58.009499,89.014435 
z"/>
</svg>